<svg xmlns="http://www.w3.org/2000/svg" viewBox="0 0 32 32"><g id="kiwi">
<path class="cls-1" style="fill: none:" d="M16,7a9,9,0,1,0,9,9A9,9,0,0,0,16,7Zm2.59,5L20,10.59A1,1,0,0,1,21.41,12L20,13.41a1,1,0,0,1-.71.3,1,1,0,0,1-.7-.3A1,1,0,0,1,18.59,12ZM9,16a1,1,0,0,1,1-1h2a1,1,0,0,1,0,2H10A1,1,0,0,1,9,16Zm4.41,4L12,21.41a1,1,0,0,1-.71.3,1,1,0,0,1-.7-.3,1,1,0,0,1,0-1.41L12,18.59A1,1,0,0,1,13.41,20Zm0-6.59a1,1,0,0,1-.7.3,1,1,0,0,1-.71-.3L10.59,12A1,1,0,0,1,12,10.59L13.41,12A1,1,0,0,1,13.41,13.41ZM17,22a1,1,0,0,1-2,0V20a1,1,0,0,1,2,0Zm0-10a1,1,0,0,1-2,0V10a1,1,0,0,1,2,0Zm4.41,9.41a1,1,0,0,1-.7.3,1,1,0,0,1-.71-.3L18.59,20A1,1,0,0,1,20,18.59L21.41,20A1,1,0,0,1,21.41,21.41ZM22,17H20a1,1,0,0,1,0-2h2a1,1,0,0,1,0,2Z"/>
<circle class="cls-2" style="fill:#b2fa09;" cx="16" cy="16" r="11"/>
<path class="cls-3" style="fill:#87a829;" d="M16,9a1,1,0,0,0-1,1v2a1,1,0,0,0,2,0V10A1,1,0,0,0,16,9Z"/>
<path class="cls-3" style="fill:#87a829;" d="M22,15H20a1,1,0,0,0,0,2h2a1,1,0,0,0,0-2Z"/>
<path class="cls-3" style="fill:#87a829;" d="M20,18.59A1,1,0,0,0,18.59,20L20,21.41a1,1,0,0,0,.71.3,1,1,0,0,0,.7-.3,1,1,0,0,0,0-1.41Z"/>
<path class="cls-3" style="fill:#87a829;" d="M12,18.59,10.59,20a1,1,0,0,0,0,1.41,1,1,0,0,0,.7.3,1,1,0,0,0,.71-.3L13.41,20A1,1,0,0,0,12,18.59Z"/>
<path class="cls-3" style="fill:#87a829;" d="M19.29,13.71a1,1,0,0,0,.71-.3L21.41,12A1,1,0,0,0,20,10.59L18.59,12a1,1,0,0,0,0,1.41A1,1,0,0,0,19.29,13.71Z"/>
<path class="cls-3" style="fill:#b2fa09;" d="M16,19a1,1,0,0,0-1,1v2a1,1,0,0,0,2,0V20A1,1,0,0,0,16,19Z"/>
<path class="cls-3" style="fill:#87a829;" d="M13,16a1,1,0,0,0-1-1H10a1,1,0,0,0,0,2h2A1,1,0,0,0,13,16Z"/>
<path class="cls-3" style="fill:#87a829;" d="M12,10.59A1,1,0,0,0,10.59,12L12,13.41a1,1,0,0,0,.71.3,1,1,0,0,0,.7-.3,1,1,0,0,0,0-1.41Z"/>
<path class="cls-4" style="fill:#a78966;" d="M16,27A11,11,0,1,1,27,16,11,11,0,0,1,16,27ZM16,7a9,9,0,1,0,9,9A9,9,0,0,0,16,7Z"/></g></svg>